{"title":"Princess.Mononoke.1997.SWESUB.DVDRip.x264-HODAS [JAP AUDIO]","uid":11088448,"size":908967884,"categoryP":"video","categoryS":"movies","magnet":"?xt=urn:btih:759596e12ea68d148707220a645d5ad5bb41038d&amp;dn=Princess.Mononoke.1997.SWESUB.DVDRip.x264-HODAS+%5BJAP+AUDIO%5D&amp;tr=udp%3A%2F%2Ftracker.openbittorrent.com%3A80&amp;tr=udp%3A%2F%2Fopen.demonii.com%3A1337&amp;tr=udp%3A%2F%2Ftracker.coppersurfer.tk%3A6969&amp;tr=udp%3A%2F%2Fexodus.desync.com%3A6969","seeders":0,"leechers":0,"uploader":"malajen88","files":1,"time":1411485377,"description":"Also called Mononoke-hime.\n\nThis great astounding movie from 1997, a beautiful masterpiece that cannot be described in words! A must see! OBS: Japanese Audio + Swedish Subtitles\n\nwww.imdb.com/title/tt0119698/\n\n    Format : MPEG-4\n    Format profile : Base Media / Version 2\n    Codec ID : mp42\n    File size : 867 MiB\n    Duration : 2h 7mn\n    Overall bit rate mode : Variable\n    Overall bit rate : 948 Kbps\n\n  Video #1\n    Width : 720 pixels\n    Height : 558 pixels\n    Bit rate : 783 Kbps\n    Bit rate mode : Variable\n    ID : 1\n    Format : AVC\n    Format/Info : Advanced Video Codec\n    Format profile : &lt;a class=&quot;__cf_email__&quot; href=&quot;/cdn-cgi/l/email-protection&quot; data-cfemail=&quot;94dcfdf3fcd4d8a0baa4&quot;&gt;[email&amp;#160;protected]&lt;/a&gt;&lt;script data-cfhash='f9e31' type=&quot;text/javascript&quot;&gt;\n/* &lt;![CDATA[ */!function(){try{var t=&quot;currentScript&quot;in document?document.currentScript:function(){for(var t=document.getElementsByTagName(&quot;script&quot;),e=t.length;e--;)if(t[e].getAttribute(&quot;data-cfhash&quot;))return t[e]}();if(t&amp;&amp;t.previousSibling){var e,r,n,i,c=t.previousSibling,a=c.getAttribute(&quot;data-cfemail&quot;);if(a){for(e=&quot;&quot;,r=parseInt(a.substr(0,2),16),n=2;a.length-n;n+=2)i=parseInt(a.substr(n,2),16)^r,e+=String.fromCharCode(i);e=document.createTextNode(e),c.parentNode.replaceChild(e,c)}t.parentNode.removeChild(t);}}catch(u){}}()/* ]]&gt; */&lt;/script&gt;\n    Format settings, CABAC : Yes\n    Format settings, ReFrames : 4 frames\n    Codec ID : avc1\n    Codec ID/Info : Advanced Video Coding\n    Duration : 2h 7mn\n    \n    \n   \n    Display aspect ratio : 1.85:1\n    Frame rate mode : Constant\n    Frame rate : 25.000 fps\n    Color space : YUV\n    Chroma subsampling : 4:2:0\n    Bit depth : 8 bits\n    Scan type : Progressive\n    Bits/(Pixel*Frame) : 0.078\n    Stream size : 717 MiB (83%)\n    Writing library : x264 core 130 r2273 b3065e6\n    \n    Audio #2\n    ID : 2\n    Format : AAC\n    Format/Info : Advanced Audio Codec\n    Format profile : LC\n    Codec ID : 40\n    Duration : 2h 7mn\n    Bit rate mode : Variable\n    Bit rate : 160 Kbps\n    Maximum bit rate : 286 Kbps\n    Channel(s) : 2 channels\n    Channel positions : Front: L R\n    Sampling rate : 48.0 KHz\n    Compression mode : Lossy\n    Delay relative to video : -80ms\n    Stream size : 146 MiB (17%)\n    Language : Japanese\n    Encoded date : UTC 2014-09-23 11:36:58\n    Tagged date : UTC 2014-09-23 12:48:56\n  Text #3\n    ID : 3\n    Format : Apple text\n    Codec ID : text\n    Duration : 2h 7mn\n    Bit rate mode : Variable\n    Bit rate : 0 bps\n    Stream size : 279 Bytes (0%)\n    Encoded date : UTC 2014-09-23 11:36:58\n    Tagged date : UTC 2014-09-23 12:48:57\n\n\n\nScreens: \n &lt;a href=&quot;\nhttp://image.bayimg.com/1e57b82864420a65caf6891e55fc4e1fa0298894.jpg&quot; rel=&quot;nofollow&quot; target=&quot;_NEW&quot;&gt;\nhttp://image.bayimg.com/1e57b82864420a65caf6891e55fc4e1fa0298894.jpg&lt;/a&gt;\n &lt;a href=&quot;\nhttp://image.bayimg.com/eafd075b177f8bd41b7c8daec9826a031db5dc6f.jpg&quot; rel=&quot;nofollow&quot; target=&quot;_NEW&quot;&gt;\nhttp://image.bayimg.com/eafd075b177f8bd41b7c8daec9826a031db5dc6f.jpg&lt;/a&gt;\n &lt;a href=&quot;\nhttp://image.bayimg.com/b68adb7823ade77cba995207b2e4f08217ef7764.jpg&quot; rel=&quot;nofollow&quot; target=&quot;_NEW&quot;&gt;\nhttp://image.bayimg.com/b68adb7823ade77cba995207b2e4f08217ef7764.jpg&lt;/a&gt;\n &lt;a href=&quot;\nhttp://image.bayimg.com/1b8bb8e053ed3465a8cb6e7c90da548e33b12645.jpg&quot; rel=&quot;nofollow&quot; target=&quot;_NEW&quot;&gt;\nhttp://image.bayimg.com/1b8bb8e053ed3465a8cb6e7c90da548e33b12645.jpg&lt;/a&gt;\n","torrent":{"xt":"urn:btih:759596e12ea68d148707220a645d5ad5bb41038d","amp;dn":"Princess.Mononoke.1997.SWESUB.DVDRip.x264-HODAS+%5BJAP+AUDIO%5D","amp;tr":["udp%3A%2F%2Ftracker.openbittorrent.com%3A80","udp%3A%2F%2Fopen.demonii.com%3A1337","udp%3A%2F%2Ftracker.coppersurfer.tk%3A6969","udp%3A%2F%2Fexodus.desync.com%3A6969"],"infoHash":"759596e12ea68d148707220a645d5ad5bb41038d","infoHashBuffer":{"type":"Buffer","data":[117,149,150,225,46,166,141,20,135,7,34,10,100,93,90,213,187,65,3,141]},"announce":[],"urlList":[]}}